<svg viewBox="-250 -250 500 500" width="500" height="500" xmlns="http://www.w3.org/2000/svg"><path d="M-57.444007016712696,-78.08092516468109L-17.152429623863554,-103.62406807704487L-33.59144178199017,-95.47446695395163zM-57.444007016712696,-78.08092516468109L-33.59144178199017,-95.47446695395163L-48.77402852486714,-85.50078071215609zM-57.444007016712696,-78.08092516468109L0,-109.67791514631814L-17.152429623863554,-103.62406807704487zM-57.444007016712696,-78.08092516468109L17.29908522101835,-113.41531811129721L0,-109.67791514631814zM-57.444007016712696,-78.08092516468109L-62.18607945400024,-74.02257731549386L-73.34736934061583,-61.406337644418045zM-57.444007016712696,-78.08092516468109L34.15856593897992,-114.67056264014477L17.29908522101835,-113.41531811129721zM-57.444007016712696,-78.08092516468109L-73.34736934061583,-61.406337644418045L-81.8215814337363,-48.06458375050164zM-57.444007016712696,-78.08092516468109L48.67445800515135,-113.45078324862673L34.15856593897992,-114.67056264014477zM-57.444007016712696,-78.08092516468109L-34.811183159017595,-67.13878171179317L48.67445800515135,-113.45078324862673zM-57.444007016712696,-78.08092516468109L-81.8215814337363,-48.06458375050164L-85.39062797998714,-39.08091379498951zM-57.444007016712696,-78.08092516468109L-85.39062797998714,-39.08091379498951L-34.811183159017595,-67.13878171179317zM-34.811183159017595,-67.13878171179317L-85.39062797998714,-39.08091379498951L-85.8203908098093,-37.99911586080564zM-34.811183159017595,-67.13878171179317L-85.8203908098093,-37.99911586080564L-14.657889978529495,-57.39537313383007zM85.26995991325977,-93.98578914287828L49.97885948497851,-113.34111927495924L48.67445800515135,-113.45078324862673zM85.26995991325977,-93.98578914287828L48.67445800515135,-113.45078324862673L-34.811183159017595,-67.13878171179317z" style="fill:rgb(83,212,212)"/><path d="M-78.12773307671559,7.620494313834265L-45.83116713503429,64.47706991165416L-37.06100553130094,74.23056604013263z" style="fill:rgb(25,53,149)"/><path d="M85.26995991325977,-93.98578914287828L64.1580259535068,-109.39731689194792L49.97885948497851,-113.34111927495924z" style="fill:rgb(83,212,212)"/><path d="M92.26352320941974,-76.56871187370042L120.06050491196902,-3.123777805295334L117.6244291764631,-16.042528559807966z" style="fill:rgb(247,162,153)"/><path d="M85.26995991325977,-93.98578914287828L-34.811183159017595,-67.13878171179317L-14.657889978529495,-57.39537313383007z" style="fill:rgb(83,212,212)"/><path d="M-29.388503197734117,79.08372647635454L-24.994869073413273,74.36801344519058L-54.599985671026786,36.17101854017983z" style="fill:rgb(214,87,211)"/><path d="M-27.926319673576522,-10.051868102535721L5.9868672551484385,53.18164516214313L23.404000197606788,46.100985083975786z" style="fill:rgb(151,45,222)"/><path d="M-45.32130095366879,0.013283896687581832L-10.326180972114267,62.70595694022858L5.9868672551484385,53.18164516214313z" style="fill:rgb(174,56,222)"/><path d="M85.26995991325977,-93.98578914287828L76.10639884839114,-102.89443510721239L64.1580259535068,-109.39731689194792z" style="fill:rgb(83,212,212)"/><path d="M-9.454764189496235,-17.701857485030608L23.404000197606788,46.100985083975786L41.356233459105404,41.710132516798716z" style="fill:rgb(127,37,217)"/><path d="M-61.0726751012074,12.17547148741139L-24.994869073413273,74.36801344519058L-10.326180972114267,62.70595694022858z" style="fill:rgb(195,71,219)"/><path d="M-37.06100553130094,74.23056604013263L-29.388503197734117,79.08372647635454L-65.83499323412266,17.047770407224945z" style="fill:rgb(40,43,167)"/><path d="M-82.50516041336537,2.8971959337343L-45.83116713503429,64.47706991165416L-78.12773307671559,7.620494313834265z" style="fill:rgb(25,53,149)"/><path d="M92.54367211580302,-63.11557953466343L118.79801704871666,10.923621027096127L120.06050491196902,-3.123777805295334z" style="fill:rgb(245,144,171)"/><path d="M9.49915484351415,-22.67502627867642L41.356233459105404,41.710132516798716L59.24962958332985,40.19146335221771z" style="fill:rgb(103,32,209)"/><path d="M92.26352320941974,-76.56871187370042L117.6244291764631,-16.042528559807966L91.1588732043137,-82.93352619826078z" style="fill:rgb(247,162,153)"/><path d="M-68.93489521363128,-166.01942209534988L-15.190889406451916,-185.75020606435638L-51.48815351423099,-174.69996587087044zM85.26995991325977,-93.98578914287828L-14.657889978529495,-57.39537313383007L89.62189607999284,-85.81814647914094zM-51.48815351423099,-174.69996587087044L-15.190889406451916,-185.75020606435638L-33.3767110296841,-181.35628669501776zM-91.55110334674309,-146.70565206079326L-85.14922607135719,-155.59970775424395L-94.48301871922457,-147.9535005632658z" style="fill:rgb(83,212,212)"/><path d="M28.317174698979958,-24.769787412637154L59.24962958332985,40.19146335221771L76.47017500551333,41.65661440738015z" style="fill:rgb(80,32,198)"/><path d="M-85.14922607135719,-155.59970775424395L2.459583577886281,-187.694137838712L-68.93489521363128,-166.01942209534988z" style="fill:rgb(83,212,212)"/><path d="M-78.12773307671559,7.620494313834265L-37.06100553130094,74.23056604013263L-73.6889918730622,12.410154707507466z" style="fill:rgb(25,53,149)"/><path d="M-91.55110334674309,-146.70565206079326L-94.48301871922457,-147.9535005632658L-99.58977353834548,-143.77007072521826zM-90.83271481728889,-146.39990375352966L-91.55110334674309,-146.70565206079326L-99.58977353834548,-143.77007072521826zM-68.93489521363128,-166.01942209534988L2.459583577886281,-187.694137838712L-15.190889406451916,-185.75020606435638z" style="fill:rgb(83,212,212)"/><path d="M-54.599985671026786,36.17101854017983L-24.994869073413273,74.36801344519058L-61.0726751012074,12.17547148741139z" style="fill:rgb(214,87,211)"/><path d="M88.86898101424448,-48.68328711268982L113.75975754068358,25.501219403261118L118.79801704871666,10.923621027096127z" style="fill:rgb(239,125,187)"/><path d="M93.38351882706586,-70.11557785664378L120.06050491196902,-3.123777805295334L92.26352320941974,-76.56871187370042z" style="fill:rgb(247,162,153)"/><path d="M-36.619052151694525,-5.022043383750931L5.9868672551484385,53.18164516214313L-27.926319673576522,-10.051868102535721zM-45.32130095366879,0.013283896687581832L5.9868672551484385,53.18164516214313L-36.619052151694525,-5.022043383750931z" style="fill:rgb(174,56,222)"/><path d="M-27.926319673576522,-10.051868102535721L23.404000197606788,46.100985083975786L-18.698968278759978,-13.873372925586684z" style="fill:rgb(151,45,222)"/><path d="M-37.06100553130094,74.23056604013263L-67.63636624859343,15.984077031194355L-73.6889918730622,12.410154707507466z" style="fill:rgb(40,43,167)"/><path d="M-18.698968278759978,-13.873372925586684L23.404000197606788,46.100985083975786L-9.454764189496235,-17.701857485030608z" style="fill:rgb(151,45,222)"/><path d="M-53.181380116482835,6.082287935490568L-10.326180972114267,62.70595694022858L-45.32130095366879,0.013283896687581832z" style="fill:rgb(195,71,219)"/><path d="M-80.83649369316792,-142.14541362636038L-90.83271481728889,-146.39990375352966L-99.58977353834548,-143.77007072521826zM-91.55110334674309,-146.70565206079326L18.951468646510293,-187.05929205346192L-85.14922607135719,-155.59970775424395z" style="fill:rgb(83,212,212)"/><path d="M-61.0726751012074,12.17547148741139L-10.326180972114267,62.70595694022858L-53.181380116482835,6.082287935490568z" style="fill:rgb(195,71,219)"/><path d="M-9.454764189496235,-17.701857485030608L41.356233459105404,41.710132516798716L0,-20.182567615645954z" style="fill:rgb(127,37,217)"/><path d="M-37.06100553130094,74.23056604013263L-65.83499323412266,17.047770407224945L-67.63636624859343,15.984077031194355z" style="fill:rgb(40,43,167)"/><path d="M-80.83649369316792,-142.14541362636038L-99.58977353834548,-143.77007072521826L-111.7465404111332,-130.90373046699392z" style="fill:rgb(83,212,212)"/><path d="M92.54367211580302,-63.11557953466343L120.06050491196902,-3.123777805295334L93.38351882706586,-70.11557785664378z" style="fill:rgb(245,144,171)"/><path d="M-90.83271481728889,-146.39990375352966L18.951468646510293,-187.05929205346192L-91.55110334674309,-146.70565206079326z" style="fill:rgb(83,212,212)"/><path d="M0,-20.182567615645954L41.356233459105404,41.710132516798716L9.49915484351415,-22.67502627867642z" style="fill:rgb(127,37,217)"/><path d="M46.35977330336486,-23.851645864855033L76.47017500551333,41.65661440738015L92.3909769173318,46.13681395306256z" style="fill:rgb(59,35,183)"/><path d="M-85.14922607135719,-155.59970775424395L18.951468646510293,-187.05929205346192L2.459583577886281,-187.694137838712z" style="fill:rgb(83,212,212)"/><path d="M81.26581250960298,-33.90765655240232L105.06040014373005,39.94280969570491L113.75975754068358,25.501219403261118z" style="fill:rgb(229,105,201)"/><path d="M-78.02900938680823,-140.95057652680993L-80.83649369316792,-142.14541362636038L-111.7465404111332,-130.90373046699392z" style="fill:rgb(83,212,212)"/><path d="M9.49915484351415,-22.67502627867642L59.24962958332985,40.19146335221771L18.873398099024104,-23.71853555808264z" style="fill:rgb(103,32,209)"/><path d="M77.07332678285054,3.0089447874314454L97.28223998588976,48.73502469871907L105.06040014373005,39.94280969570491z" style="fill:rgb(214,87,211)"/><path d="M18.873398099024104,-23.71853555808264L59.24962958332985,40.19146335221771L28.317174698979958,-24.769787412637154z" style="fill:rgb(103,32,209)"/><path d="M91.69292000353063,-56.0247676470438L118.79801704871666,10.923621027096127L92.54367211580302,-63.11557953466343z" style="fill:rgb(245,144,171)"/><path d="M-80.83649369316792,-142.14541362636038L33.65753045518449,-183.78588373203695L-90.83271481728889,-146.39990375352966zM-67.96251537539263,-136.66619092176097L-78.02900938680823,-140.95057652680993L-111.7465404111332,-130.90373046699392zM-67.96251537539263,-136.66619092176097L-111.7465404111332,-130.90373046699392L-121.14951285809099,-117.41750200153403zM-90.83271481728889,-146.39990375352966L33.65753045518449,-183.78588373203695L18.951468646510293,-187.05929205346192z" style="fill:rgb(83,212,212)"/><path d="M92.3909769173318,46.13681395306256L97.28223998588976,48.73502469871907L68.04926219089985,-17.409381249225145z" style="fill:rgb(40,43,167)"/><path d="M88.86898101424448,-48.68328711268982L118.79801704871666,10.923621027096127L91.69292000353063,-56.0247676470438z" style="fill:rgb(239,125,187)"/><path d="M-78.02900938680823,-140.95057652680993L33.65753045518449,-183.78588373203695L-80.83649369316792,-142.14541362636038z" style="fill:rgb(83,212,212)"/><path d="M28.317174698979958,-24.769787412637154L76.47017500551333,41.65661440738015L37.29404525788474,-24.31302859915232z" style="fill:rgb(80,32,198)"/><path d="M-102.63212321011409,-30.898352077191337L-82.50516041336537,2.8971959337343L-78.12773307671559,7.620494313834265z" style="fill:rgb(25,53,149)"/><path d="M-54.599985671026786,36.17101854017983L-61.0726751012074,12.17547148741139L-65.83499323412266,17.047770407224945z" style="fill:rgb(214,87,211)"/><path d="M37.29404525788474,-24.31302859915232L76.47017500551333,41.65661440738015L46.35977330336486,-23.851645864855033z" style="fill:rgb(80,32,198)"/><path d="M77.1464884856101,-116.51076393524676L92.26352320941974,-76.56871187370042L91.1588732043137,-82.93352619826078z" style="fill:rgb(247,162,153)"/><path d="M-63.044382897966194,-134.57296770273854L-67.96251537539263,-136.66619092176097L-121.14951285809099,-117.41750200153403z" style="fill:rgb(83,212,212)"/><path d="M86.01263314342754,-41.25746714275506L113.75975754068358,25.501219403261118L88.86898101424448,-48.68328711268982z" style="fill:rgb(239,125,187)"/><path d="M-96.04433069320629,-23.92063708995134L-78.12773307671559,7.620494313834265L-73.6889918730622,12.410154707507466z" style="fill:rgb(25,53,149)"/><path d="M-67.96251537539263,-136.66619092176097L45.96283926566604,-177.8963482138852L-78.02900938680823,-140.95057652680993zM-53.3073409723556,-130.4287898293446L-121.14951285809099,-117.41750200153403L-127.38163205991013,-103.77074366725539z" style="fill:rgb(83,212,212)"/><path d="M81.26581250960298,-33.90765655240232L113.75975754068358,25.501219403261118L86.01263314342754,-41.25746714275506z" style="fill:rgb(229,105,201)"/><path d="M-53.3073409723556,-130.4287898293446L-63.044382897966194,-134.57296770273854L-121.14951285809099,-117.41750200153403z" style="fill:rgb(83,212,212)"/><path d="M46.35977330336486,-23.851645864855033L92.3909769173318,46.13681395306256L54.61699744771455,-21.869437131225357z" style="fill:rgb(59,35,183)"/><path d="M-78.02900938680823,-140.95057652680993L45.96283926566604,-177.8963482138852L33.65753045518449,-183.78588373203695z" style="fill:rgb(83,212,212)"/><path d="M77.07332678285054,3.0089447874314454L105.06040014373005,39.94280969570491L76.47427423519537,-26.488441576584744z" style="fill:rgb(214,87,211)"/><path d="M-73.6889918730622,12.410154707507466L-67.63636624859343,15.984077031194355L-77.5056932134331,-2.816975233095126z" style="fill:rgb(40,43,167)"/><path d="M78.71946501940124,-106.94020355175937L93.38351882706586,-70.11557785664378L92.26352320941974,-76.56871187370042z" style="fill:rgb(247,162,153)"/><path d="M-46.563979072219965,-44.80314684832172L-27.926319673576522,-10.051868102535721L-18.698968278759978,-13.873372925586684z" style="fill:rgb(151,45,222)"/><path d="M77.1464884856101,-116.51076393524676L91.1588732043137,-82.93352619826078L76.62964922864612,-119.65571057563228z" style="fill:rgb(247,162,153)"/><path d="M-60.053877436736535,-37.03619082052019L-36.619052151694525,-5.022043383750931L-27.926319673576522,-10.051868102535721zM-64.5555206500029,-34.44427801473208L-45.32130095366879,0.013283896687581832L-36.619052151694525,-5.022043383750931z" style="fill:rgb(174,56,222)"/><path d="M-41.808719949004825,-46.79249007516462L-18.698968278759978,-13.873372925586684L-9.454764189496235,-17.701857485030608z" style="fill:rgb(151,45,222)"/><path d="M-102.63212321011409,-30.898352077191337L-78.12773307671559,7.620494313834265L-96.04433069320629,-23.92063708995134z" style="fill:rgb(25,53,149)"/><path d="M-63.044382897966194,-134.57296770273854L45.96283926566604,-177.8963482138852L-67.96251537539263,-136.66619092176097z" style="fill:rgb(83,212,212)"/><path d="M54.61699744771455,-21.869437131225357L92.3909769173318,46.13681395306256L62.97356604740484,-19.863354995234598z" style="fill:rgb(59,35,183)"/><path d="M-77.5056932134331,-2.816975233095126L-67.63636624859343,15.984077031194355L-65.83499323412266,17.047770407224945z" style="fill:rgb(40,43,167)"/><path d="M76.47427423519537,-26.488441576584744L105.06040014373005,39.94280969570491L81.26581250960298,-33.90765655240232z" style="fill:rgb(229,105,201)"/><path d="M-27.51612588816779,-52.77189005161507L-9.454764189496235,-17.701857485030608L0,-20.182567615645954z" style="fill:rgb(127,37,217)"/><path d="M-76.80824989290886,-25.135531208040316L-53.181380116482835,6.082287935490568L-45.32130095366879,0.013283896687581832zM-80.90934404903597,-22.019911250217834L-61.0726751012074,12.17547148741139L-53.181380116482835,6.082287935490568z" style="fill:rgb(195,71,219)"/><path d="M-22.659471348263573,-54.094344106474765L0,-20.182567615645954L9.49915484351415,-22.67502627867642z" style="fill:rgb(127,37,217)"/><path d="M92.3909769173318,46.13681395306256L68.04926219089985,-17.409381249225145L62.97356604740484,-19.863354995234598z" style="fill:rgb(40,43,167)"/><path d="M78.23830211878654,-103.45775108354228L92.54367211580302,-63.11557953466343L93.38351882706586,-70.11557785664378z" style="fill:rgb(245,144,171)"/><path d="M-65.83499323412266,17.047770407224945L-61.0726751012074,12.17547148741139L-80.90934404903597,-22.019911250217834z" style="fill:rgb(214,87,211)"/><path d="M-46.32683287987758,-127.45789977710636L-53.3073409723556,-130.4287898293446L-127.38163205991013,-103.77074366725539z" style="fill:rgb(83,212,212)"/><path d="M78.71946501940124,-106.94020355175937L92.26352320941974,-76.56871187370042L77.1464884856101,-116.51076393524676z" style="fill:rgb(247,162,153)"/><path d="M-8.019135693901095,-58.080645180386156L9.49915484351415,-22.67502627867642L18.873398099024104,-23.71853555808264z" style="fill:rgb(103,32,209)"/><path d="M-96.04433069320629,-23.92063708995134L-73.6889918730622,12.410154707507466L-93.81660997726146,-21.561128432278934z" style="fill:rgb(25,53,149)"/><path d="M-37.34805871815173,-123.63641857118174L-127.38163205991013,-103.77074366725539L-130.09797022896277,-90.46064578717824z" style="fill:rgb(83,212,212)"/><path d="M-3.218092543753789,-58.68626702130086L18.873398099024104,-23.71853555808264L28.317174698979958,-24.769787412637154z" style="fill:rgb(103,32,209)"/><path d="M-73.6889918730622,12.410154707507466L-77.5056932134331,-2.816975233095126L-85.87881026624909,-17.068979312565688z" style="fill:rgb(40,43,167)"/><path d="M-60.053877436736535,-37.03619082052019L-27.926319673576522,-10.051868102535721L-46.563979072219965,-44.80314684832172z" style="fill:rgb(174,56,222)"/><path d="M-46.563979072219965,-44.80314684832172L-18.698968278759978,-13.873372925586684L-41.808719949004825,-46.79249007516462z" style="fill:rgb(151,45,222)"/><path d="M-64.5555206500029,-34.44427801473208L-36.619052151694525,-5.022043383750931L-60.053877436736535,-37.03619082052019z" style="fill:rgb(174,56,222)"/><path d="M-53.3073409723556,-130.4287898293446L55.28771921281325,-169.51026520378392L-63.044382897966194,-134.57296770273854z" style="fill:rgb(83,212,212)"/><path d="M-41.808719949004825,-46.79249007516462L-9.454764189496235,-17.701857485030608L-27.51612588816779,-52.77189005161507z" style="fill:rgb(151,45,222)"/><path d="M-73.6889918730622,12.410154707507466L-85.87881026624909,-17.068979312565688L-93.81660997726146,-21.561128432278934z" style="fill:rgb(40,43,167)"/><path d="M-37.34805871815173,-123.63641857118174L-46.32683287987758,-127.45789977710636L-127.38163205991013,-103.77074366725539z" style="fill:rgb(83,212,212)"/><path d="M-76.80824989290886,-25.135531208040316L-45.32130095366879,0.013283896687581832L-64.5555206500029,-34.44427801473208z" style="fill:rgb(195,71,219)"/><path d="M-63.044382897966194,-134.57296770273854L55.28771921281325,-169.51026520378392L45.96283926566604,-177.8963482138852z" style="fill:rgb(83,212,212)"/><path d="M76.77548854108437,-92.87024667840252L91.69292000353063,-56.0247676470438L92.54367211580302,-63.11557953466343z" style="fill:rgb(245,144,171)"/><path d="M-27.51612588816779,-52.77189005161507L0,-20.182567615645954L-22.659471348263573,-54.094344106474765z" style="fill:rgb(127,37,217)"/><path d="M78.23830211878654,-103.45775108354228L93.38351882706586,-70.11557785664378L78.71946501940124,-106.94020355175937z" style="fill:rgb(245,144,171)"/><path d="M-80.90934404903597,-22.019911250217834L-53.181380116482835,6.082287935490568L-76.80824989290886,-25.135531208040316z" style="fill:rgb(195,71,219)"/><path d="M11.295452066020424,-60.51715661068302L28.317174698979958,-24.769787412637154L37.29404525788474,-24.31302859915232z" style="fill:rgb(80,32,198)"/><path d="M-22.659471348263573,-54.094344106474765L9.49915484351415,-22.67502627867642L-8.019135693901095,-58.080645180386156z" style="fill:rgb(127,37,217)"/><path d="M-65.83499323412266,17.047770407224945L-80.90934404903597,-22.019911250217834L-85.87881026624909,-17.068979312565688z" style="fill:rgb(214,87,211)"/><path d="M-46.32683287987758,-127.45789977710636L55.28771921281325,-169.51026520378392L-53.3073409723556,-130.4287898293446z" style="fill:rgb(83,212,212)"/><path d="M75.27622385705521,-89.1949592936146L88.86898101424448,-48.68328711268982L91.69292000353063,-56.0247676470438z" style="fill:rgb(239,125,187)"/><path d="M-8.019135693901095,-58.080645180386156L18.873398099024104,-23.71853555808264L-3.218092543753789,-58.68626702130086z" style="fill:rgb(103,32,209)"/><path d="M15.88018427525421,-60.37238798412078L37.29404525788474,-24.31302859915232L46.35977330336486,-23.851645864855033z" style="fill:rgb(80,32,198)"/><path d="M-96.04433069320629,-23.92063708995134L-124.11294474443822,-66.96706482074337L-102.63212321011409,-30.898352077191337z" style="fill:rgb(25,53,149)"/><path d="M76.77548854108437,-92.87024667840252L92.54367211580302,-63.11557953466343L78.23830211878654,-103.45775108354228z" style="fill:rgb(245,144,171)"/><path d="M-35.64557798327604,-122.91187392653185L-37.34805871815173,-123.63641857118174L-130.09797022896277,-90.46064578717824z" style="fill:rgb(83,212,212)"/><path d="M77.07332678285054,3.0089447874314454L76.47427423519537,-26.488441576584744L69.97562365978109,-19.48535436785709z" style="fill:rgb(214,87,211)"/><path d="M-43.23028081108217,-115.56878947996186L-130.09797022896277,-90.46064578717824L-129.04971309592187,-78.01301865743284z" style="fill:rgb(83,212,212)"/><path d="M76.62964922864612,-119.65571057563228L61.11941525600979,-158.85748880242173L77.1464884856101,-116.51076393524676z" style="fill:rgb(247,162,153)"/><path d="M77.07332678285054,3.0089447874314454L69.97562365978109,-19.48535436785709L68.04926219089985,-17.409381249225145z" style="fill:rgb(214,87,211)"/><path d="M-35.64557798327604,-122.91187392653185L-130.09797022896277,-90.46064578717824L-43.23028081108217,-115.56878947996186z" style="fill:rgb(83,212,212)"/><path d="M-3.218092543753789,-58.68626702130086L28.317174698979958,-24.769787412637154L11.295452066020424,-60.51715661068302z" style="fill:rgb(103,32,209)"/><path d="M70.72527576634691,-78.03840929331766L86.01263314342754,-41.25746714275506L88.86898101424448,-48.68328711268982z" style="fill:rgb(239,125,187)"/><path d="M29.774919853959247,-59.93373875476819L46.35977330336486,-23.851645864855033L54.61699744771455,-21.869437131225357z" style="fill:rgb(59,35,183)"/><path d="M75.27622385705521,-89.1949592936146L91.69292000353063,-56.0247676470438L76.77548854108437,-92.87024667840252z" style="fill:rgb(239,125,187)"/><path d="M11.295452066020424,-60.51715661068302L37.29404525788474,-24.31302859915232L15.88018427525421,-60.37238798412078z" style="fill:rgb(80,32,198)"/><path d="M-37.34805871815173,-123.63641857118174L61.11941525600979,-158.85748880242173L-46.32683287987758,-127.45789977710636zM-46.32683287987758,-127.45789977710636L61.11941525600979,-158.85748880242173L55.28771921281325,-169.51026520378392z" style="fill:rgb(83,212,212)"/><path d="M68.23979994400158,-74.33638720984153L81.26581250960298,-33.90765655240232L86.01263314342754,-41.25746714275506z" style="fill:rgb(229,105,201)"/><path d="M-93.81660997726146,-21.561128432278934L-115.31841005235243,-57.85164401640006L-96.04433069320629,-23.92063708995134z" style="fill:rgb(25,53,149)"/><path d="M-43.23028081108217,-115.56878947996186L-129.04971309592187,-78.01301865743284L-54.743179131065745,-104.42260837230918z" style="fill:rgb(83,212,212)"/><path d="M33.97988223472523,-59.023298895833086L54.61699744771455,-21.869437131225357L62.97356604740484,-19.863354995234598z" style="fill:rgb(59,35,183)"/><path d="M-35.64557798327604,-122.91187392653185L-43.23028081108217,-115.56878947996186L-28.438157395477106,-119.84435375590131z" style="fill:rgb(83,212,212)"/><path d="M77.1464884856101,-116.51076393524676L63.050595949943805,-146.28824626070528L78.71946501940124,-106.94020355175937z" style="fill:rgb(247,162,153)"/><path d="M100.12130454836341,16.96480659704789L130.98016421088235,91.28303029063866L126.20277221394508,76.49795620985087z" style="fill:rgb(245,171,144)"/><path d="M15.88018427525421,-60.37238798412078L46.35977330336486,-23.851645864855033L29.774919853959247,-59.93373875476819z" style="fill:rgb(80,32,198)"/><path d="M-41.808719949004825,-46.79249007516462L-66.47556384511722,-81.92963374603983L-46.563979072219965,-44.80314684832172z" style="fill:rgb(151,45,222)"/><path d="M70.72527576634691,-78.03840929331766L88.86898101424448,-48.68328711268982L75.27622385705521,-89.1949592936146z" style="fill:rgb(239,125,187)"/><path d="M-46.563979072219965,-44.80314684832172L-85.10597258591297,-71.259722487001L-60.053877436736535,-37.03619082052019z" style="fill:rgb(174,56,222)"/><path d="M-27.51612588816779,-52.77189005161507L-66.47556384511722,-81.92963374603983L-41.808719949004825,-46.79249007516462z" style="fill:rgb(151,45,222)"/><path d="M-60.053877436736535,-37.03619082052019L-85.10597258591297,-71.259722487001L-64.5555206500029,-34.44427801473208z" style="fill:rgb(174,56,222)"/><path d="M-54.743179131065745,-104.42260837230918L-129.04971309592187,-78.01301865743284L-62.325518602614785,-97.08181304638724zM-28.438157395477106,-119.84435375590131L-43.23028081108217,-115.56878947996186L-54.743179131065745,-104.42260837230918z" style="fill:rgb(83,212,212)"/><path d="M62.97356604740484,-19.863354995234598L68.04926219089985,-17.409381249225145L58.66324980332509,-38.64680708452949z" style="fill:rgb(40,43,167)"/><path d="M-28.438157395477106,-119.84435375590131L61.11941525600979,-158.85748880242173L-37.34805871815173,-123.63641857118174z" style="fill:rgb(83,212,212)"/><path d="M60.7104305000428,-63.1220449021523L76.47427423519537,-26.488441576584744L81.26581250960298,-33.90765655240232z" style="fill:rgb(229,105,201)"/><path d="M-22.659471348263573,-54.094344106474765L-46.81431680329066,-90.24380356490136L-27.51612588816779,-52.77189005161507z" style="fill:rgb(127,37,217)"/><path d="M-68.61447457228827,-90.99320889674837L-129.04971309592187,-78.01301865743284L-124.11294474443822,-66.96706482074337z" style="fill:rgb(83,212,212)"/><path d="M78.71946501940124,-106.94020355175937L63.050595949943805,-146.28824626070528L78.23830211878654,-103.45775108354228z" style="fill:rgb(245,144,171)"/><path d="M-62.325518602614785,-97.08181304638724L-129.04971309592187,-78.01301865743284L-68.61447457228827,-90.99320889674837z" style="fill:rgb(83,212,212)"/><path d="M-64.5555206500029,-34.44427801473208L-102.10923695424862,-58.56519827351425L-76.80824989290886,-25.135531208040316z" style="fill:rgb(195,71,219)"/><path d="M-96.04433069320629,-23.92063708995134L-115.31841005235243,-57.85164401640006L-124.11294474443822,-66.96706482074337z" style="fill:rgb(25,53,149)"/><path d="M-8.019135693901095,-58.080645180386156L-46.81431680329066,-90.24380356490136L-22.659471348263573,-54.094344106474765z" style="fill:rgb(127,37,217)"/><path d="M-107.3036039303055,-53.5363880842456L-93.81660997726146,-21.561128432278934L-85.87881026624909,-17.068979312565688z" style="fill:rgb(40,43,167)"/><path d="M-76.80824989290886,-25.135531208040316L-102.10923695424862,-58.56519827351425L-80.90934404903597,-22.019911250217834z" style="fill:rgb(195,71,219)"/><path d="M29.774919853959247,-59.93373875476819L54.61699744771455,-21.869437131225357L33.97988223472523,-59.023298895833086z" style="fill:rgb(59,35,183)"/><path d="M77.1464884856101,-116.51076393524676L61.11941525600979,-158.85748880242173L63.050595949943805,-146.28824626070528z" style="fill:rgb(247,162,153)"/><path d="M57.32708651991481,-59.57205317714503L69.97562365978109,-19.48535436785709L76.47427423519537,-26.488441576584744z" style="fill:rgb(214,87,211)"/><path d="M-28.438157395477106,-119.84435375590131L-54.743179131065745,-104.42260837230918L-20.66301994123874,-116.53513346974884z" style="fill:rgb(83,212,212)"/><path d="M68.23979994400158,-74.33638720984153L86.01263314342754,-41.25746714275506L70.72527576634691,-78.03840929331766z" style="fill:rgb(229,105,201)"/><path d="M-102.10923695424862,-58.56519827351425L-85.87881026624909,-17.068979312565688L-80.90934404903597,-22.019911250217834zM68.04926219089985,-17.409381249225145L69.97562365978109,-19.48535436785709L57.32708651991481,-59.57205317714503z" style="fill:rgb(214,87,211)"/><path d="M-3.218092543753789,-58.68626702130086L-26.74318927408934,-95.92330328523668L-8.019135693901095,-58.080645180386156z" style="fill:rgb(103,32,209)"/><path d="M-20.66301994123874,-116.53513346974884L-54.743179131065745,-104.42260837230918L-62.325518602614785,-97.08181304638724z" style="fill:rgb(83,212,212)"/><path d="M11.295452066020424,-60.51715661068302L-26.74318927408934,-95.92330328523668L-3.218092543753789,-58.68626702130086z" style="fill:rgb(103,32,209)"/><path d="M-81.01708549003322,122.93725662808878L-45.94282025450817,178.02708549378136L-34.596259175662496,189.1229516156509z" style="fill:rgb(32,47,158)"/><path d="M60.7104305000428,-63.1220449021523L81.26581250960298,-33.90765655240232L68.23979994400158,-74.33638720984153z" style="fill:rgb(229,105,201)"/><path d="M33.97988223472523,-59.023298895833086L62.97356604740484,-19.863354995234598L46.7517934899506,-56.25805150808057z" style="fill:rgb(59,35,183)"/><path d="M-68.61447457228827,-90.99320889674837L-124.11294474443822,-66.96706482074337L-80.78259259075008,-79.21261305403108z" style="fill:rgb(83,212,212)"/><path d="M-46.563979072219965,-44.80314684832172L-66.47556384511722,-81.92963374603983L-85.10597258591297,-71.259722487001z" style="fill:rgb(174,56,222)"/><path d="M-28.438157395477106,-119.84435375590131L63.050595949943805,-146.28824626070528L61.11941525600979,-158.85748880242173z" style="fill:rgb(83,212,212)"/><path d="M-27.51612588816779,-52.77189005161507L-46.81431680329066,-90.24380356490136L-66.47556384511722,-81.92963374603983z" style="fill:rgb(151,45,222)"/><path d="M-20.66301994123874,-116.53513346974884L63.050595949943805,-146.28824626070528L-28.438157395477106,-119.84435375590131z" style="fill:rgb(83,212,212)"/><path d="M78.23830211878654,-103.45775108354228L60.82169114824578,-132.2753610156291L76.77548854108437,-92.87024667840252z" style="fill:rgb(245,144,171)"/><path d="M62.97356604740484,-19.863354995234598L58.66324980332509,-38.64680708452949L50.413677722560976,-54.58830127450425zM-107.3036039303055,-53.5363880842456L-115.31841005235243,-57.85164401640006L-93.81660997726146,-21.561128432278934z" style="fill:rgb(40,43,167)"/><path d="M-20.66301994123874,-116.53513346974884L-62.325518602614785,-97.08181304638724L-10.054335995207335,-112.02003018022543zM-10.054335995207335,-112.02003018022543L-62.325518602614785,-97.08181304638724L-68.61447457228827,-90.99320889674837z" style="fill:rgb(83,212,212)"/><path d="M102.70492754344515,32.58857126622849L131.81103735495387,107.59102020759336L130.98016421088235,91.28303029063866z" style="fill:rgb(247,153,162)"/><path d="M-64.5555206500029,-34.44427801473208L-85.10597258591297,-71.259722487001L-102.10923695424862,-58.56519827351425z" style="fill:rgb(195,71,219)"/><path d="M-80.78259259075008,-79.21261305403108L-124.11294474443822,-66.96706482074337L-115.31841005235243,-57.85164401640006z" style="fill:rgb(83,212,212)"/><path d="M15.88018427525421,-60.37238798412078L-6.907148084707315,-98.74439162784607L11.295452066020424,-60.51715661068302z" style="fill:rgb(80,32,198)"/><path d="M57.32708651991481,-59.57205317714503L76.47427423519537,-26.488441576584744L60.7104305000428,-63.1220449021523z" style="fill:rgb(214,87,211)"/><path d="M62.97356604740484,-19.863354995234598L50.413677722560976,-54.58830127450425L46.7517934899506,-56.25805150808057z" style="fill:rgb(40,43,167)"/><path d="M-8.019135693901095,-58.080645180386156L-26.74318927408934,-95.92330328523668L-46.81431680329066,-90.24380356490136z" style="fill:rgb(127,37,217)"/><path d="M100.12130454836341,16.96480659704789L126.20277221394508,76.49795620985087L97.80420617758293,9.631105195654404z" style="fill:rgb(245,171,144)"/><path d="M76.77548854108437,-92.87024667840252L60.82169114824578,-132.2753610156291L75.27622385705521,-89.1949592936146z" style="fill:rgb(239,125,187)"/><path d="M-80.78259259075008,-79.21261305403108L-67.52986525759866,-84.38196174979973L-78.7111566696156,-81.21807993077077z" style="fill:rgb(83,212,212)"/><path d="M-102.10923695424862,-58.56519827351425L-107.3036039303055,-53.5363880842456L-85.87881026624909,-17.068979312565688zM68.04926219089985,-17.409381249225145L57.32708651991481,-59.57205317714503L51.921723791059414,-53.90064807409973z" style="fill:rgb(214,87,211)"/><path d="M-80.78259259075008,-79.21261305403108L-70.59890298690274,-82.09059302707756L-67.52986525759866,-84.38196174979973z" style="fill:rgb(83,212,212)"/><path d="M29.774919853959247,-59.93373875476819L-6.907148084707315,-98.74439162784607L15.88018427525421,-60.37238798412078z" style="fill:rgb(80,32,198)"/><path d="M-10.054335995207335,-112.02003018022543L63.050595949943805,-146.28824626070528L-20.66301994123874,-116.53513346974884z" style="fill:rgb(83,212,212)"/><path d="M78.23830211878654,-103.45775108354228L63.050595949943805,-146.28824626070528L60.82169114824578,-132.2753610156291z" style="fill:rgb(245,144,171)"/><path d="M-56.98249432706655,-87.36649745908512L-67.52986525759866,-84.38196174979973L-70.59890298690274,-82.09059302707756zM-95.75356262745612,-64.71855264468282L-70.59890298690274,-82.09059302707756L-80.78259259075008,-79.21261305403108zM-80.78259259075008,-79.21261305403108L-115.31841005235243,-57.85164401640006L-95.75356262745612,-64.71855264468282zM-56.98249432706655,-87.36649745908512L-70.59890298690274,-82.09059302707756L-61.904042853723034,-84.54790165559285zM-68.61447457228827,-90.99320889674837L-78.7111566696156,-81.21807993077077L5.998212656195075,-105.18797411764396zM-61.904042853723034,-84.54790165559285L-70.59890298690274,-82.09059302707756L-85.10597258591297,-71.259722487001zM-10.054335995207335,-112.02003018022543L-68.61447457228827,-90.99320889674837L3.1401222812787584,-106.40442808637313zM-57.019894918535066,-85.9281389120168L-61.904042853723034,-84.54790165559285L-66.47556384511722,-81.92963374603983zM-46.81431680329066,-90.24380356490136L-56.98249432706655,-87.36649745908512L-61.904042853723034,-84.54790165559285zM-46.81431680329066,-90.24380356490136L-61.904042853723034,-84.54790165559285L-57.019894918535066,-85.9281389120168zM-95.75356262745612,-64.71855264468282L-92.19423495411019,-65.96772779565553L-70.59890298690274,-82.09059302707756z" style="fill:rgb(83,212,212)"/><path d="M11.295452066020424,-60.51715661068302L-6.907148084707315,-98.74439162784607L-26.74318927408934,-95.92330328523668z" style="fill:rgb(103,32,209)"/><path d="M-95.75356262745612,-64.71855264468282L-115.31841005235243,-57.85164401640006L-97.78028845729575,-62.75641485831178z" style="fill:rgb(83,212,212)"/><path d="M-67.70904038997264,132.4721264584931L-34.596259175662496,189.1229516156509L-19.982355229880994,197.4485233228822z" style="fill:rgb(49,39,175)"/><path d="M75.27622385705521,-89.1949592936146L54.362825618636435,-117.40591461823661L70.72527576634691,-78.03840929331766z" style="fill:rgb(239,125,187)"/><path d="M-97.78028845729575,-62.75641485831178L-92.19423495411019,-65.96772779565553L-95.75356262745612,-64.71855264468282zM-26.74318927408934,-95.92330328523668L-46.81431680329066,-90.24380356490136L-66.47556384511722,-81.92963374603983z" style="fill:rgb(83,212,212)"/><path d="M58.66324980332509,-38.64680708452949L51.921723791059414,-53.90064807409973L50.413677722560976,-54.58830127450425z" style="fill:rgb(40,43,167)"/><path d="M-97.78028845729575,-62.75641485831178L-95.72617207355697,-63.33079291863128L-92.19423495411019,-65.96772779565553zM-97.78028845729575,-62.75641485831178L-115.31841005235243,-57.85164401640006L-107.3036039303055,-53.5363880842456z" style="fill:rgb(83,212,212)"/><path d="M33.97988223472523,-59.023298895833086L12.027309526239863,-98.54543168360836L29.774919853959247,-59.93373875476819z" style="fill:rgb(59,35,183)"/><path d="M-102.10923695424862,-58.56519827351425L-95.72617207355697,-63.33079291863128L-97.78028845729575,-62.75641485831178z" style="fill:rgb(83,212,212)"/><path d="M102.47455739060076,24.412972176530157L130.98016421088235,91.28303029063866L100.12130454836341,16.96480659704789z" style="fill:rgb(245,171,144)"/><path d="M100.97631883660058,49.573205186902776L128.49298598600853,124.74933640859372L131.81103735495387,107.59102020759336z" style="fill:rgb(243,134,179)"/><path d="M-66.47556384511722,-81.92963374603983L-85.10597258591297,-71.259722487001L-6.907148084707315,-98.74439162784607zM-68.61447457228827,-90.99320889674837L5.998212656195075,-105.18797411764396L3.1401222812787584,-106.40442808637313z" style="fill:rgb(83,212,212)"/><path d="M-86.74107523326053,117.49513556922672L-45.94282025450817,178.02708549378136L-81.01708549003322,122.93725662808878z" style="fill:rgb(32,47,158)"/><path d="M-10.054335995207335,-112.02003018022543L60.82169114824578,-132.2753610156291L63.050595949943805,-146.28824626070528z" style="fill:rgb(83,212,212)"/><path d="M70.72527576634691,-78.03840929331766L54.362825618636435,-117.40591461823661L68.23979994400158,-74.33638720984153z" style="fill:rgb(229,105,201)"/><path d="M-66.47556384511722,-81.92963374603983L-6.907148084707315,-98.74439162784607L-26.74318927408934,-95.92330328523668z" style="fill:rgb(83,212,212)"/><path d="M46.7517934899506,-56.25805150808057L12.027309526239863,-98.54543168360836L33.97988223472523,-59.023298895833086z" style="fill:rgb(59,35,183)"/><path d="M3.1401222812787584,-106.40442808637313L60.82169114824578,-132.2753610156291L-10.054335995207335,-112.02003018022543z" style="fill:rgb(83,212,212)"/><path d="M102.70492754344515,32.58857126622849L130.98016421088235,91.28303029063866L102.47455739060076,24.412972176530157z" style="fill:rgb(247,153,162)"/><path d="M-26.74318927408934,-95.92330328523668L-11.499437587862962,-98.79270293284583L-16.419978451613108,-98.84435588609057zM-26.74318927408934,-95.92330328523668L-16.49561480163038,-97.38071393535671L-11.499437587862962,-98.79270293284583z" style="fill:rgb(83,212,212)"/><path d="M75.27622385705521,-89.1949592936146L60.82169114824578,-132.2753610156291L54.362825618636435,-117.40591461823661z" style="fill:rgb(239,125,187)"/><path d="M29.774919853959247,-59.93373875476819L12.027309526239863,-98.54543168360836L-6.907148084707315,-98.74439162784607z" style="fill:rgb(80,32,198)"/><path d="M-85.10597258591297,-71.259722487001L-102.10923695424862,-58.56519827351425L12.027309526239863,-98.54543168360836zM-94.37020930639028,104.23559458887806L16.883586182437,65.78118093383138L-97.03964870542576,93.13795717595309zM-11.499437587862962,-98.79270293284583L5.998212656195075,-105.18797411764396L-16.419978451613108,-98.84435588609057zM-16.49561480163038,-97.38071393535671L-6.907148084707315,-98.74439162784607L-11.499437587862962,-98.79270293284583z" style="fill:rgb(83,212,212)"/><path d="M68.23979994400158,-74.33638720984153L43.82677390595109,-102.35789041105204L60.7104305000428,-63.1220449021523z" style="fill:rgb(229,105,201)"/><path d="M-85.10597258591297,-71.259722487001L12.027309526239863,-98.54543168360836L-6.907148084707315,-98.74439162784607z" style="fill:rgb(83,212,212)"/><path d="M-51.10811907457741,138.8674560847513L-19.982355229880994,197.4485233228822L-2.6508916085562935,202.50947598531158z" style="fill:rgb(69,33,191)"/><path d="M-11.499437587862962,-98.79270293284583L8.04602075404845,-104.31639999962994L5.998212656195075,-105.18797411764396z" style="fill:rgb(83,212,212)"/><path d="M-81.01708549003322,122.93725662808878L-34.596259175662496,189.1229516156509L-75.2062470060934,128.46208814631018z" style="fill:rgb(32,47,158)"/><path d="M60.7104305000428,-63.1220449021523L43.82677390595109,-102.35789041105204L57.32708651991481,-59.57205317714503z" style="fill:rgb(214,87,211)"/><path d="M0.9571273207135306,-98.66181132680772L8.04602075404845,-104.31639999962994L-11.499437587862962,-98.79270293284583z" style="fill:rgb(83,212,212)"/><path d="M50.413677722560976,-54.58830127450425L29.37805513395905,-95.2373993985034L46.7517934899506,-56.25805150808057z" style="fill:rgb(40,43,167)"/><path d="M94.83103685008139,67.19029096273188L121.02349708028409,141.98798556255733L128.49298598600853,124.74933640859372z" style="fill:rgb(235,115,194)"/><path d="M43.82677390595109,-102.35789041105204L51.921723791059414,-53.90064807409973L57.32708651991481,-59.57205317714503z" style="fill:rgb(214,87,211)"/><path d="M-102.10923695424862,-58.56519827351425L-116.91595444150265,-44.23014533376476L29.37805513395905,-95.2373993985034z" style="fill:rgb(83,212,212)"/><path d="M102.938751589164,40.88635925775861L131.81103735495387,107.59102020759336L102.70492754344515,32.58857126622849z" style="fill:rgb(247,153,162)"/><path d="M3.1401222812787584,-106.40442808637313L54.362825618636435,-117.40591461823661L60.82169114824578,-132.2753610156291zM0.9571273207135306,-98.66181132680772L12.123625438728807,-102.58099570984938L8.04602075404845,-104.31639999962994zM8.04602075404845,-104.31639999962994L54.362825618636435,-117.40591461823661L3.1401222812787584,-106.40442808637313z" style="fill:rgb(83,212,212)"/><path d="M34.64299354221065,-92.99654520543213L50.413677722560976,-54.58830127450425L51.921723791059414,-53.90064807409973z" style="fill:rgb(40,43,167)"/><path d="M-75.2062470060934,128.46208814631018L-34.596259175662496,189.1229516156509L-67.70904038997264,132.4721264584931z" style="fill:rgb(49,39,175)"/><path d="M68.23979994400158,-74.33638720984153L54.362825618636435,-117.40591461823661L43.82677390595109,-102.35789041105204z" style="fill:rgb(229,105,201)"/><path d="M12.123625438728807,-102.58099570984938L54.362825618636435,-117.40591461823661L8.04602075404845,-104.31639999962994z" style="fill:rgb(83,212,212)"/><path d="M9.146052407273263,51.239081159920886L-97.03964870542576,93.13795717595309L16.883586182437,65.78118093383138z" style="fill:rgb(127,37,217)"/><path d="M-31.0628532181189,143.38471061121058L-2.6508916085562935,202.50947598531158L6.712234390866401,203.20923061594854z" style="fill:rgb(91,32,204)"/><path d="M46.7517934899506,-56.25805150808057L29.37805513395905,-95.2373993985034L12.027309526239863,-98.54543168360836z" style="fill:rgb(59,35,183)"/><path d="M-102.10923695424862,-58.56519827351425L29.37805513395905,-95.2373993985034L12.027309526239863,-98.54543168360836zM21.84791723816101,-98.44223440079449L12.123625438728807,-102.58099570984938L0.9571273207135306,-98.66181132680772z" style="fill:rgb(83,212,212)"/><path d="M100.97631883660058,49.573205186902776L131.81103735495387,107.59102020759336L102.938751589164,40.88635925775861z" style="fill:rgb(243,134,179)"/><path d="M9.146052407273263,51.239081159920886L-119.00409754850597,60.23458967721983L-97.03964870542576,93.13795717595309z" style="fill:rgb(127,37,217)"/><path d="M-94.37020930639028,104.23559458887806L-86.74107523326053,117.49513556922672L-75.2062470060934,128.46208814631018z" style="fill:rgb(83,212,212)"/><path d="M-31.0628532181189,143.38471061121058L6.712234390866401,203.20923061594854L16.661671500967568,203.95289034103985z" style="fill:rgb(91,32,204)"/><path d="M84.39658382844873,84.61949264907693L109.62755961769263,158.47960851456418L121.02349708028409,141.98798556255733z" style="fill:rgb(222,96,207)"/><path d="M25.011087603140822,-97.09597448601787L54.362825618636435,-117.40591461823661L12.123625438728807,-102.58099570984938zM31.921939640941652,-85.35488931041213L-116.91595444150265,-44.23014533376476L-128.98930975058778,-28.692981537018174z" style="fill:rgb(83,212,212)"/><path d="M-67.70904038997264,132.4721264584931L-19.982355229880994,197.4485233228822L-60.10676502312354,136.53836011264224z" style="fill:rgb(49,39,175)"/><path d="M83.2089853088486,-23.76556099555863L100.12130454836341,16.96480659704789L97.80420617758293,9.631105195654404z" style="fill:rgb(245,171,144)"/><path d="M34.64299354221065,-92.99654520543213L29.37805513395905,-95.2373993985034L50.413677722560976,-54.58830127450425z" style="fill:rgb(40,43,167)"/><path d="M21.84791723816101,-98.44223440079449L12.027309526239863,-98.54543168360836L22.829644864326752,-96.48585918105375zM-94.37020930639028,104.23559458887806L-12.1679326136864,110.76431330401606L16.883586182437,65.78118093383138z" style="fill:rgb(83,212,212)"/><path d="M43.82677390595109,-102.35789041105204L34.64299354221065,-92.99654520543213L51.921723791059414,-53.90064807409973z" style="fill:rgb(214,87,211)"/><path d="M-116.91595444150265,-44.23014533376476L36.66872826382105,-92.13439115092362L29.37805513395905,-95.2373993985034z" style="fill:rgb(83,212,212)"/><path d="M98.98726642743253,58.3783611859614L128.49298598600853,124.74933640859372L100.97631883660058,49.573205186902776z" style="fill:rgb(243,134,179)"/><path d="M-10.862520723675377,140.702284096961L16.661671500967568,203.95289034103985L37.0635937196835,201.60916536142332z" style="fill:rgb(115,34,214)"/><path d="M21.84791723816101,-98.44223440079449L22.829644864326752,-96.48585918105375L25.011087603140822,-97.09597448601787z" style="fill:rgb(83,212,212)"/><path d="M-60.10676502312354,136.53836011264224L-19.982355229880994,197.4485233228822L-51.10811907457741,138.8674560847513z" style="fill:rgb(69,33,191)"/><path d="M25.011087603140822,-97.09597448601787L43.82677390595109,-102.35789041105204L54.362825618636435,-117.40591461823661z" style="fill:rgb(83,212,212)"/><path d="M70.05341492188575,100.99657041858238L94.76621603258909,173.39359668418257L109.62755961769263,158.47960851456418z" style="fill:rgb(205,79,215)"/><path d="M25.528352012050043,-95.97132562686437L25.011087603140822,-97.09597448601787L22.829644864326752,-96.48585918105375zM-94.37020930639028,104.23559458887806L-75.2062470060934,128.46208814631018L-60.10676502312354,136.53836011264224zM25.528352012050043,-95.97132562686437L26.696000047976078,-96.37892537297303L25.011087603140822,-97.09597448601787zM26.696000047976078,-96.37892537297303L43.82677390595109,-102.35789041105204L25.011087603140822,-97.09597448601787zM-116.91595444150265,-44.23014533376476L31.921939640941652,-85.35488931041213L36.66872826382105,-92.13439115092362zM29.37805513395905,-95.2373993985034L26.696000047976078,-96.37892537297303L25.528352012050043,-95.97132562686437z" style="fill:rgb(83,212,212)"/><path d="M94.83103685008139,67.19029096273188L128.49298598600853,124.74933640859372L98.98726642743253,58.3783611859614z" style="fill:rgb(235,115,194)"/><path d="M10.921155570983988,135.83968487066738L37.0635937196835,201.60916536142332L57.559934623600654,195.52214201857777z" style="fill:rgb(139,40,220)"/><path d="M52.43259091364001,115.47478546635487L77.1222303273907,185.9580313093583L94.76621603258909,173.39359668418257z" style="fill:rgb(185,63,221)"/><path d="M83.2089853088486,-23.76556099555863L97.80420617758293,9.631105195654404L82.07617732360191,-27.401964743692197zM86.66240133950296,-12.680106533097883L102.47455739060076,24.412972176530157L100.12130454836341,16.96480659704789z" style="fill:rgb(245,171,144)"/><path d="M101.66074849976111,44.74499787479574L9.146052407273263,51.239081159920886L16.883586182437,65.78118093383138z" style="fill:rgb(127,37,217)"/><path d="M34.64299354221065,-92.99654520543213L43.82677390595109,-102.35789041105204L26.696000047976078,-96.37892537297303zM-94.37020930639028,104.23559458887806L-58.643839683994,136.91708423682886L-12.1679326136864,110.76431330401606z" style="fill:rgb(83,212,212)"/><path d="M32.3844874342546,127.29319544960246L57.559934623600654,195.52214201857777L77.1222303273907,185.9580313093583z" style="fill:rgb(163,50,222)"/><path d="M-94.37020930639028,104.23559458887806L-60.10676502312354,136.53836011264224L-58.643839683994,136.91708423682886z" style="fill:rgb(83,212,212)"/><path d="M101.66074849976111,44.74499787479574L16.883586182437,65.78118093383138L101.92836996662554,45.35913493151263z" style="fill:rgb(127,37,217)"/><path d="M31.921939640941652,-85.35488931041213L-128.98930975058778,-28.692981537018174L31.106561073682048,-84.19030967195651z" style="fill:rgb(83,212,212)"/><path d="M-51.10811907457741,138.8674560847513L-2.6508916085562935,202.50947598531158L-41.9995659118229,141.2250267940216z" style="fill:rgb(69,33,191)"/><path d="M11.79403176246571,-56.60726319818154L-128.98930975058778,-28.692981537018174L-137.83485355359045,-12.449129374064388zM-12.1679326136864,110.76431330401606L101.92836996662554,45.35913493151263L16.883586182437,65.78118093383138z" style="fill:rgb(83,212,212)"/><path d="M-2.002860594792738,30.28536161942549L-119.4018885506705,59.638768289512214L-119.00409754850597,60.23458967721983z" style="fill:rgb(127,37,217)"/><path d="M90.62642648772744,76.105141805992L121.02349708028409,141.98798556255733L94.83103685008139,67.19029096273188z" style="fill:rgb(235,115,194)"/><path d="M31.106561073682048,-84.19030967195651L-128.98930975058778,-28.692981537018174L20.924783833561282,-69.64814528826138z" style="fill:rgb(83,212,212)"/><path d="M86.72074570253204,-8.600326261416539L102.70492754344515,32.58857126622849L102.47455739060076,24.412972176530157z" style="fill:rgb(247,153,162)"/><path d="M-2.6508916085562935,202.50947598531158L-32.13679203121041,141.6839010028079L-41.9995659118229,141.2250267940216z" style="fill:rgb(91,32,204)"/><path d="M-2.002860594792738,30.28536161942549L-119.00409754850597,60.23458967721983L9.146052407273263,51.239081159920886z" style="fill:rgb(127,37,217)"/><path d="M-2.6508916085562935,202.50947598531158L-31.0628532181189,143.38471061121058L-32.13679203121041,141.6839010028079z" style="fill:rgb(91,32,204)"/><path d="M86.66240133950296,-12.680106533097883L100.12130454836341,16.96480659704789L83.2089853088486,-23.76556099555863z" style="fill:rgb(245,171,144)"/><path d="M84.39658382844873,84.61949264907693L121.02349708028409,141.98798556255733L90.62642648772744,76.105141805992z" style="fill:rgb(222,96,207)"/><path d="M31.921939640941652,-85.35488931041213L44.45885434946929,-88.81888147196449L36.66872826382105,-92.13439115092362zM-12.1679326136864,110.76431330401606L101.6174411757076,46.73552788810781L101.92836996662554,45.35913493151263zM20.924783833561282,-69.64814528826138L-128.98930975058778,-28.692981537018174L11.79403176246571,-56.60726319818154z" style="fill:rgb(83,212,212)"/><path d="M-31.0628532181189,143.38471061121058L16.661671500967568,203.95289034103985L-21.64952989744669,142.1719186475071z" style="fill:rgb(91,32,204)"/><path d="M31.921939640941652,-85.35488931041213L31.106561073682048,-84.19030967195651L44.45885434946929,-88.81888147196449zM8.505375657323857,-51.91029504082694L-137.83485355359045,-12.449129374064388L-143.01803594691827,3.949272006139347z" style="fill:rgb(83,212,212)"/><path d="M78.10966559447581,93.21198823455435L109.62755961769263,158.47960851456418L84.39658382844873,84.61949264907693z" style="fill:rgb(222,96,207)"/><path d="M86.89873137972336,3.828589271819882L102.938751589164,40.88635925775861L102.70492754344515,32.58857126622849z" style="fill:rgb(247,153,162)"/><path d="M-21.64952989744669,142.1719186475071L16.661671500967568,203.95289034103985L-10.862520723675377,140.702284096961z" style="fill:rgb(115,34,214)"/><path d="M86.72074570253204,-8.600326261416539L102.47455739060076,24.412972176530157L86.66240133950296,-12.680106533097883z" style="fill:rgb(247,153,162)"/><path d="M70.05341492188575,100.99657041858238L109.62755961769263,158.47960851456418L78.10966559447581,93.21198823455435z" style="fill:rgb(205,79,215)"/><path d="M31.106561073682048,-84.19030967195651L56.59991394011915,-79.39422955187712L44.45885434946929,-88.81888147196449z" style="fill:rgb(83,212,212)"/><path d="M85.7928625454429,8.3337563366398L9.146052407273263,51.239081159920886L101.66074849976111,44.74499787479574z" style="fill:rgb(127,37,217)"/><path d="M86.3468552568051,9.604916581001605L101.92836996662554,45.35913493151263L102.938751589164,40.88635925775861z" style="fill:rgb(243,134,179)"/><path d="M-12.1679326136864,110.76431330401606L-58.643839683994,136.91708423682886L-41.9995659118229,141.2250267940216zM11.79403176246571,-56.60726319818154L-137.83485355359045,-12.449129374064388L8.505375657323857,-51.91029504082694z" style="fill:rgb(83,212,212)"/><path d="M-10.862520723675377,140.702284096961L37.0635937196835,201.60916536142332L0,139.22227016461306z" style="fill:rgb(115,34,214)"/><path d="M31.106561073682048,-84.19030967195651L20.924783833561282,-69.64814528826138L56.59991394011915,-79.39422955187712z" style="fill:rgb(83,212,212)"/><path d="M61.94709390371198,108.82952913260463L94.76621603258909,173.39359668418257L70.05341492188575,100.99657041858238z" style="fill:rgb(205,79,215)"/><path d="M78.10966559447581,93.21198823455435L101.6174411757076,46.73552788810781L-12.1679326136864,110.76431330401606z" style="fill:rgb(83,212,212)"/><path d="M0,139.22227016461306L37.0635937196835,201.60916536142332L10.921155570983988,135.83968487066738z" style="fill:rgb(139,40,220)"/><path d="M78.10966559447581,93.21198823455435L98.98726642743253,58.3783611859614L101.6174411757076,46.73552788810781z" style="fill:rgb(83,212,212)"/><path d="M52.43259091364001,115.47478546635487L94.76621603258909,173.39359668418257L61.94709390371198,108.82952913260463z" style="fill:rgb(185,63,221)"/><path d="M86.89873137972336,3.828589271819882L102.70492754344515,32.58857126622849L86.72074570253204,-8.600326261416539z" style="fill:rgb(247,153,162)"/><path d="M82.07617732360191,-27.401964743692197L65.17721798136436,-67.19195479800221L83.2089853088486,-23.76556099555863z" style="fill:rgb(245,171,144)"/><path d="M85.7928625454429,8.3337563366398L-2.002860594792738,30.28536161942549L9.146052407273263,51.239081159920886z" style="fill:rgb(127,37,217)"/><path d="M10.921155570983988,135.83968487066738L57.559934623600654,195.52214201857777L21.883693260882204,132.44434164149894z" style="fill:rgb(139,40,220)"/><path d="M42.889893104638055,122.13985635598677L77.1222303273907,185.9580313093583L52.43259091364001,115.47478546635487z" style="fill:rgb(185,63,221)"/><path d="M21.883693260882204,132.44434164149894L57.559934623600654,195.52214201857777L32.3844874342546,127.29319544960246z" style="fill:rgb(163,50,222)"/><path d="M-12.1679326136864,110.76431330401606L-41.9995659118229,141.2250267940216L-32.13679203121041,141.6839010028079z" style="fill:rgb(83,212,212)"/><path d="M32.3844874342546,127.29319544960246L77.1222303273907,185.9580313093583L42.889893104638055,122.13985635598677z" style="fill:rgb(163,50,222)"/><path d="M8.505375657323857,-51.91029504082694L-143.01803594691827,3.949272006139347L4.747463727988924,-46.54290415025467zM-4.8999841329335165,-32.76392496359278L-143.01803594691827,3.949272006139347L-144.187620085756,19.89720308355614zM78.10966559447581,93.21198823455435L-12.1679326136864,110.76431330401606L-32.13679203121041,141.6839010028079zM78.10966559447581,93.21198823455435L90.62642648772744,76.105141805992L98.98726642743253,58.3783611859614z" style="fill:rgb(83,212,212)"/><path d="M86.3468552568051,9.604916581001605L102.938751589164,40.88635925775861L86.89873137972336,3.828589271819882z" style="fill:rgb(243,134,179)"/><path d="M4.747463727988924,-46.54290415025467L-143.01803594691827,3.949272006139347L-4.8999841329335165,-32.76392496359278z" style="fill:rgb(83,212,212)"/><path d="M-31.0628532181189,143.38471061121058L-31.874301465333694,141.69615421043653L-32.13679203121041,141.6839010028079z" style="fill:rgb(91,32,204)"/><path d="M20.924783833561282,-69.64814528826138L11.79403176246571,-56.60726319818154L65.17721798136436,-67.19195479800221zM20.924783833561282,-69.64814528826138L65.17721798136436,-67.19195479800221L56.59991394011915,-79.39422955187712z" style="fill:rgb(83,212,212)"/><path d="M-31.0628532181189,143.38471061121058L-21.64952989744669,142.1719186475071L-31.874301465333694,141.69615421043653z" style="fill:rgb(91,32,204)"/><path d="M83.2089853088486,-23.76556099555863L69.65330751009584,-52.58105640781645L86.66240133950296,-12.680106533097883z" style="fill:rgb(245,171,144)"/><path d="M78.10966559447581,93.21198823455435L-32.13679203121041,141.6839010028079L-21.64952989744669,142.1719186475071zM11.79403176246571,-56.60726319818154L8.505375657323857,-51.91029504082694L65.17721798136436,-67.19195479800221z" style="fill:rgb(83,212,212)"/><path d="M-100.69378082066666,92.03184938782744L-133.69045728262003,47.83681603471162L-109.36308085724623,83.93113594763226z" style="fill:rgb(32,47,158)"/><path d="M8.505375657323857,-51.91029504082694L4.747463727988924,-46.54290415025467L65.17721798136436,-67.19195479800221z" style="fill:rgb(83,212,212)"/><path d="M86.66240133950296,-12.680106533097883L69.65330751009584,-52.58105640781645L86.72074570253204,-8.600326261416539z" style="fill:rgb(247,153,162)"/><path d="M-4.8999841329335165,-32.76392496359278L-144.187620085756,19.89720308355614L-9.904664968836594,-25.615955434019064zM78.10966559447581,93.21198823455435L-21.64952989744669,142.1719186475071L0,139.22227016461306z" style="fill:rgb(83,212,212)"/><path d="M83.2089853088486,-23.76556099555863L65.17721798136436,-67.19195479800221L69.65330751009584,-52.58105640781645z" style="fill:rgb(245,171,144)"/><path d="M-18.784255796179465,-12.933771919074978L-144.187620085756,19.89720308355614L-141.1071481373856,34.74862094659451z" style="fill:rgb(83,212,212)"/><path d="M86.3468552568051,9.604916581001605L86.89873137972336,3.828589271819882L85.8283515934658,8.188699480066147z" style="fill:rgb(243,134,179)"/><path d="M78.10966559447581,93.21198823455435L0,139.22227016461306L21.883693260882204,132.44434164149894zM-9.904664968836594,-25.615955434019064L-144.187620085756,19.89720308355614L-18.784255796179465,-12.933771919074978zM78.10966559447581,93.21198823455435L42.889893104638055,122.13985635598677L61.94709390371198,108.82952913260463z" style="fill:rgb(83,212,212)"/><path d="M86.3468552568051,9.604916581001605L85.8283515934658,8.188699480066147L85.7928625454429,8.3337563366398z" style="fill:rgb(243,134,179)"/><path d="M78.10966559447581,93.21198823455435L21.883693260882204,132.44434164149894L42.889893104638055,122.13985635598677zM4.747463727988924,-46.54290415025467L-4.8999841329335165,-32.76392496359278L69.65330751009584,-52.58105640781645zM4.747463727988924,-46.54290415025467L69.65330751009584,-52.58105640781645L65.17721798136436,-67.19195479800221z" style="fill:rgb(83,212,212)"/><path d="M-97.75861580576016,94.77449414578139L-122.03887959623633,58.506015450178005L-100.69378082066666,92.03184938782744z" style="fill:rgb(32,47,158)"/><path d="M86.72074570253204,-8.600326261416539L69.62497675879857,-36.07964583961115L86.89873137972336,3.828589271819882z" style="fill:rgb(247,153,162)"/><path d="M-4.8999841329335165,-32.76392496359278L-9.904664968836594,-25.615955434019064L69.65330751009584,-52.58105640781645z" style="fill:rgb(83,212,212)"/><path d="M-86.29767589920304,100.66967678783902L-122.03887959623633,58.506015450178005L-97.75861580576016,94.77449414578139z" style="fill:rgb(49,39,175)"/><path d="M-18.784255796179465,-12.933771919074978L-141.1071481373856,34.74862094659451L-24.799102990817666,-4.343123329848012z" style="fill:rgb(83,212,212)"/><path d="M86.89873137972336,3.828589271819882L69.62497675879857,-36.07964583961115L85.8283515934658,8.188699480066147z" style="fill:rgb(243,134,179)"/><path d="M-100.69378082066666,92.03184938782744L-122.03887959623633,58.506015450178005L-133.69045728262003,47.83681603471162z" style="fill:rgb(32,47,158)"/><path d="M-32.58091660052342,6.771290678822582L-141.1071481373856,34.74862094659451L-133.69045728262003,47.83681603471162z" style="fill:rgb(83,212,212)"/><path d="M86.72074570253204,-8.600326261416539L69.65330751009584,-52.58105640781645L69.62497675879857,-36.07964583961115z" style="fill:rgb(247,153,162)"/><path d="M-24.799102990817666,-4.343123329848012L-141.1071481373856,34.74862094659451L-32.58091660052342,6.771290678822582zM-9.904664968836594,-25.615955434019064L-18.784255796179465,-12.933771919074978L69.62497675879857,-36.07964583961115z" style="fill:rgb(83,212,212)"/><path d="M-82.42182171627508,102.66342516354966L-106.47252209088545,66.15381593783295L-86.29767589920304,100.66967678783902z" style="fill:rgb(49,39,175)"/><path d="M-9.904664968836594,-25.615955434019064L69.62497675879857,-36.07964583961115L69.65330751009584,-52.58105640781645z" style="fill:rgb(83,212,212)"/><path d="M85.8283515934658,8.188699480066147L64.87595278071295,-18.352536518989364L82.5721769298591,21.453872324829078z" style="fill:rgb(243,134,179)"/><path d="M-18.784255796179465,-12.933771919074978L-24.799102990817666,-4.343123329848012L69.62497675879857,-36.07964583961115z" style="fill:rgb(83,212,212)"/><path d="M-68.58267479098203,105.97902185571095L-106.47252209088545,66.15381593783295L-82.42182171627508,102.66342516354966z" style="fill:rgb(69,33,191)"/><path d="M-32.58091660052342,6.771290678822582L-133.69045728262003,47.83681603471162L-39.304809912942936,16.374687485956684z" style="fill:rgb(83,212,212)"/><path d="M82.5721769298591,21.453872324829078L64.87595278071295,-18.352536518989364L80.37281575120706,25.901727171939683z" style="fill:rgb(235,115,194)"/><path d="M-86.29767589920304,100.66967678783902L-106.47252209088545,66.15381593783295L-122.03887959623633,58.506015450178005z" style="fill:rgb(49,39,175)"/><path d="M-45.68479395123792,25.486854924860726L-133.69045728262003,47.83681603471162L-122.03887959623633,58.506015450178005zM-39.304809912942936,16.374687485956684L-133.69045728262003,47.83681603471162L-45.68479395123792,25.486854924860726z" style="fill:rgb(83,212,212)"/><path d="M85.8283515934658,8.188699480066147L69.62497675879857,-36.07964583961115L64.87595278071295,-18.352536518989364z" style="fill:rgb(243,134,179)"/><path d="M-24.799102990817666,-4.343123329848012L-32.58091660052342,6.771290678822582L64.87595278071295,-18.352536518989364z" style="fill:rgb(83,212,212)"/><path d="M-63.91114475764821,107.09830615485193L-87.54932727896207,70.28236307564772L-68.58267479098203,105.97902185571095z" style="fill:rgb(69,33,191)"/><path d="M80.37281575120706,25.901727171939683L55.42490367111119,-0.1909087838033559L73.69471400851712,39.40714570491089z" style="fill:rgb(235,115,194)"/><path d="M-24.799102990817666,-4.343123329848012L64.87595278071295,-18.352536518989364L69.62497675879857,-36.07964583961115zM-32.58091660052342,6.771290678822582L-39.304809912942936,16.374687485956684L64.87595278071295,-18.352536518989364z" style="fill:rgb(83,212,212)"/><path d="M-77.13991568953534,70.4124951477635L-63.91114475764821,107.09830615485193L-53.781261267150576,107.4057396934174z" style="fill:rgb(91,32,204)"/><path d="M-45.68479395123792,25.486854924860726L-122.03887959623633,58.506015450178005L-52.75969649383529,35.591612304845924z" style="fill:rgb(83,212,212)"/><path d="M73.69471400851712,39.40714570491089L55.42490367111119,-0.1909087838033559L70.42840879789459,43.729796276499904z" style="fill:rgb(222,96,207)"/><path d="M-52.75969649383529,35.591612304845924L-122.03887959623633,58.506015450178005L-57.48119613074911,42.335051780703395z" style="fill:rgb(83,212,212)"/><path d="M-68.58267479098203,105.97902185571095L-87.54932727896207,70.28236307564772L-106.47252209088545,66.15381593783295z" style="fill:rgb(69,33,191)"/><path d="M-66.06257450240922,70.55105496806097L-53.781261267150576,107.4057396934174L-48.27197721115178,107.5728712528164z" style="fill:rgb(91,32,204)"/><path d="M-57.48119613074911,42.335051780703395L-122.03887959623633,58.506015450178005L-106.47252209088545,66.15381593783295z" style="fill:rgb(83,212,212)"/><path d="M80.37281575120706,25.901727171939683L64.87595278071295,-18.352536518989364L55.42490367111119,-0.1909087838033559z" style="fill:rgb(235,115,194)"/><path d="M-43.005698018539235,107.73270476904298L-66.06257450240922,70.55105496806097L-48.27197721115178,107.5728712528164z" style="fill:rgb(91,32,204)"/><path d="M-39.304809912942936,16.374687485956684L-45.68479395123792,25.486854924860726L55.42490367111119,-0.1909087838033559z" style="fill:rgb(83,212,212)"/><path d="M70.42840879789459,43.729796276499904L41.5607476416304,17.526320015280763L60.536521320913266,56.821258833302934z" style="fill:rgb(222,96,207)"/><path d="M-26.288912669986875,105.25229093741214L-66.06257450240922,70.55105496806097L-43.005698018539235,107.73270476904298z" style="fill:rgb(115,34,214)"/><path d="M60.536521320913266,56.821258833302934L41.5607476416304,17.526320015280763L56.33182300130996,60.79846981694132z" style="fill:rgb(205,79,215)"/><path d="M-45.68479395123792,25.486854924860726L-52.75969649383529,35.591612304845924L55.42490367111119,-0.1909087838033559zM-39.304809912942936,16.374687485956684L55.42490367111119,-0.1909087838033559L64.87595278071295,-18.352536518989364z" style="fill:rgb(83,212,212)"/><path d="M-77.13991568953534,70.4124951477635L-87.54932727896207,70.28236307564772L-63.91114475764821,107.09830615485193z" style="fill:rgb(91,32,204)"/><path d="M-57.48119613074911,42.335051780703395L-106.47252209088545,66.15381593783295L-64.50597103520268,52.368302200235306z" style="fill:rgb(83,212,212)"/><path d="M-20.676160732897184,104.41942242893191L-43.01130273436685,66.82396458440716L-26.288912669986875,105.25229093741214z" style="fill:rgb(115,34,214)"/><path d="M56.33182300130996,60.79846981694132L23.85432870348124,33.890546813211344L43.63631266652297,72.8071104148008z" style="fill:rgb(205,79,215)"/><path d="M-64.50597103520268,52.368302200235306L-106.47252209088545,66.15381593783295L-67.38267132487448,56.4768604944314z" style="fill:rgb(83,212,212)"/><path d="M-3.705818637108369,99.04125088882142L-43.01130273436685,66.82396458440716L-20.676160732897184,104.41942242893191z" style="fill:rgb(139,40,220)"/><path d="M43.63631266652297,72.8071104148008L23.85432870348124,33.890546813211344L38.68478044747934,76.22807339523268z" style="fill:rgb(185,63,221)"/><path d="M-66.06257450240922,70.55105496806097L-77.13991568953534,70.4124951477635L-53.781261267150576,107.4057396934174z" style="fill:rgb(91,32,204)"/><path d="M70.42840879789459,43.729796276499904L55.42490367111119,-0.1909087838033559L41.5607476416304,17.526320015280763z" style="fill:rgb(222,96,207)"/><path d="M-67.38267132487448,56.4768604944314L-106.47252209088545,66.15381593783295L-87.54932727896207,70.28236307564772zM-52.75969649383529,35.591612304845924L-57.48119613074911,42.335051780703395L41.5607476416304,17.526320015280763z" style="fill:rgb(83,212,212)"/><path d="M1.9733291424110384,97.24152539534626L-19.541132819059662,59.202696225067626L-3.705818637108369,99.04125088882142z" style="fill:rgb(139,40,220)"/><path d="M38.68478044747934,76.22807339523268L3.1389568710587374,48.03377180454232L23.78434807281301,86.52220524958358z" style="fill:rgb(185,63,221)"/><path d="M18.329775981585925,89.20299197388726L-19.541132819059662,59.202696225067626L1.9733291424110384,97.24152539534626zM23.78434807281301,86.52220524958358L3.1389568710587374,48.03377180454232L18.329775981585925,89.20299197388726z" style="fill:rgb(163,50,222)"/><path d="M-57.48119613074911,42.335051780703395L-64.50597103520268,52.368302200235306L41.5607476416304,17.526320015280763zM-67.38267132487448,56.4768604944314L-87.54932727896207,70.28236307564772L-73.93487138510028,65.83498530795298zM-52.75969649383529,35.591612304845924L41.5607476416304,17.526320015280763L55.42490367111119,-0.1909087838033559zM-73.93487138510028,65.83498530795298L-87.54932727896207,70.28236307564772L-74.8709742549547,67.17201684113618z" style="fill:rgb(83,212,212)"/><path d="M-26.288912669986875,105.25229093741214L-43.01130273436685,66.82396458440716L-66.06257450240922,70.55105496806097z" style="fill:rgb(115,34,214)"/><path d="M56.33182300130996,60.79846981694132L41.5607476416304,17.526320015280763L23.85432870348124,33.890546813211344z" style="fill:rgb(205,79,215)"/><path d="M-74.8709742549547,67.17201684113618L-87.54932727896207,70.28236307564772L-77.13991568953534,70.4124951477635zM-64.50597103520268,52.368302200235306L-67.38267132487448,56.4768604944314L23.85432870348124,33.890546813211344zM-67.38267132487448,56.4768604944314L-73.93487138510028,65.83498530795298L23.85432870348124,33.890546813211344zM-74.8709742549547,67.17201684113618L-77.13991568953534,70.4124951477635L-66.06257450240922,70.55105496806097z" style="fill:rgb(83,212,212)"/><path d="M-3.705818637108369,99.04125088882142L-19.541132819059662,59.202696225067626L-43.01130273436685,66.82396458440716z" style="fill:rgb(139,40,220)"/><path d="M38.68478044747934,76.22807339523268L23.85432870348124,33.890546813211344L3.1389568710587374,48.03377180454232z" style="fill:rgb(185,63,221)"/><path d="M-64.50597103520268,52.368302200235306L23.85432870348124,33.890546813211344L41.5607476416304,17.526320015280763zM-73.93487138510028,65.83498530795298L-74.8709742549547,67.17201684113618L3.1389568710587374,48.03377180454232z" style="fill:rgb(83,212,212)"/><path d="M18.329775981585925,89.20299197388726L3.1389568710587374,48.03377180454232L-19.541132819059662,59.202696225067626z" style="fill:rgb(163,50,222)"/><path d="M-74.8709742549547,67.17201684113618L-66.06257450240922,70.55105496806097L3.1389568710587374,48.03377180454232zM-73.93487138510028,65.83498530795298L3.1389568710587374,48.03377180454232L23.85432870348124,33.890546813211344zM-19.541132819059662,59.202696225067626L-66.06257450240922,70.55105496806097L-43.01130273436685,66.82396458440716zM3.1389568710587374,48.03377180454232L-66.06257450240922,70.55105496806097L-19.541132819059662,59.202696225067626z" style="fill:rgb(83,212,212)"/></svg>